<svg xmlns="http://www.w3.org/2000/svg" xmlns:xlink="http://www.w3.org/1999/xlink" width="400" zoomAndPan="magnify" viewBox="0 0 300 138.749998" height="185" preserveAspectRatio="xMidYMid meet" version="1.0"><defs><clipPath id="614817fd67"><path d="M 21 10 L 298.195312 10 L 298.195312 105 L 21 105 Z M 21 10 " clip-rule="nonzero"/></clipPath><clipPath id="7e315c63a6"><path d="M 0.269531 0 L 57 0 L 57 138.5 L 0.269531 138.5 Z M 0.269531 0 " clip-rule="nonzero"/></clipPath></defs><g clip-path="url(#614817fd67)"><path fill="#8e00f9" d="M 51.878906 12.335938 L 298.210938 10.476562 L 265.527344 94.195312 L 21.878906 104.6875 L 53.964844 53.191406 L 34.503906 54.648438 Z M 51.878906 12.335938 " fill-opacity="1" fill-rule="evenodd"/></g><path fill="#ffffff" d="M 24.847656 99.921875 L 262.335938 89.695312 L 291.4375 15.164062 L 49.972656 16.988281 L 34.503906 54.648438 L 53.964844 53.191406 Z M 24.847656 99.921875 " fill-opacity="1" fill-rule="evenodd"/><path fill="#8e00f9" d="M 51.878906 12.335938 L 57.125 12.300781 L 39.898438 54.242188 L 34.503906 54.648438 Z M 27.246094 104.457031 L 21.878906 104.6875 L 53.710938 53.601562 L 59.191406 53.191406 Z M 27.246094 104.457031 " fill-opacity="0.302" fill-rule="evenodd"/><g clip-path="url(#7e315c63a6)"><path fill="#8e00f9" d="M 34.503906 54.648438 L 56.847656 0.246094 L 15.765625 6.410156 L 0.269531 74.226562 L 23.335938 70.238281 L 0.632812 138.785156 L 53.964844 53.191406 Z M 34.503906 54.648438 " fill-opacity="1" fill-rule="evenodd"/></g><path fill="#8e00f9" d="M 55.703125 20.445312 L 48.527344 20.5 L 55.703125 20.445312 L 57.148438 16.929688 Z M 55.703125 20.445312 " fill-opacity="0.302" fill-rule="evenodd"/><path stroke-linecap="butt" transform="matrix(0.611127, 0, 0, 0.611127, 64.854318, 26.778167)" fill="none" stroke-linejoin="miter" d="M 5.064251 12.705709 L 17.5412 12.705709 L 17.5412 3.29047 L 5.064251 3.29047 Z M 5.882412 68.001861 L 16.72304 68.001861 L 16.72304 19.973277 L 5.882412 19.973277 Z M 23.447297 68.001861 L 34.281533 68.001861 L 34.281533 31.082364 L 70.363694 68.001861 L 85.320693 68.001861 L 85.320693 19.973277 L 74.486457 19.973277 L 74.486457 56.87999 L 38.474606 19.973277 L 23.447297 19.973277 Z M 92.057734 68.001861 L 126.765641 68.001861 C 139.325685 68.001861 150.230232 60.31243 150.230232 43.981177 C 150.230232 27.662708 139.325685 19.973277 126.765641 19.973277 L 92.057734 19.973277 Z M 102.891971 58.867865 L 102.891971 29.107273 L 122.240191 29.107273 C 133.080819 29.107273 139.395996 31.568146 139.395996 43.981177 C 139.395996 56.406991 133.080819 58.867865 122.240191 58.867865 Z M 155.452398 12.705709 L 167.935739 12.705709 L 167.935739 3.29047 L 155.452398 3.29047 Z M 156.27695 68.001861 L 167.111186 68.001861 L 167.111186 19.973277 L 156.27695 19.973277 Z M 173.835444 68.001861 L 184.676072 68.001861 L 184.676072 54.751494 L 207.105178 54.751494 L 215.210081 68.001861 L 227.961882 68.001861 L 218.981291 53.460335 C 225.763075 51.114515 229.949756 45.41935 229.949756 37.32723 C 229.949756 26.627223 222.484041 19.973277 211.560318 19.973277 L 173.835444 19.973277 Z M 184.676072 45.636674 L 184.676072 29.107273 L 208.140662 29.107273 C 212.397654 29.107273 219.11552 29.107273 219.11552 37.32723 C 219.11552 45.636674 212.397654 45.636674 208.140662 45.636674 Z M 235.178314 12.705709 L 247.655263 12.705709 L 247.655263 3.29047 L 235.178314 3.29047 Z M 235.996474 68.001861 L 246.837102 68.001861 L 246.837102 19.973277 L 235.996474 19.973277 Z M 253.56136 68.001861 L 264.401988 68.001861 L 264.401988 32.808171 L 286.275001 68.001861 L 294.450215 68.001861 L 316.259308 32.808171 L 316.259308 68.001861 L 327.11272 68.001861 L 327.11272 19.973277 L 311.868087 19.973277 L 290.327452 55.435425 L 268.786818 19.973277 L 253.56136 19.973277 Z M 253.56136 68.001861 " stroke="#8e00f9" stroke-width="2.573239" stroke-opacity="1" stroke-miterlimit="4"/></svg>